<?xml version="1.0" encoding="UTF-8" standalone="no"?>
<!-- Created with Inkscape (http://www.inkscape.org/) -->

<svg
   xmlns:dc="http://purl.org/dc/elements/1.1/"
   xmlns:cc="http://creativecommons.org/ns#"
   xmlns:rdf="http://www.w3.org/1999/02/22-rdf-syntax-ns#"
   xmlns:svg="http://www.w3.org/2000/svg"
   xmlns="http://www.w3.org/2000/svg"
   xmlns:sodipodi="http://sodipodi.sourceforge.net/DTD/sodipodi-0.dtd"
   xmlns:inkscape="http://www.inkscape.org/namespaces/inkscape"
   width="40mm"
   height="40mm"
   viewBox="0 0 40 40"
   version="1.1"
   id="svg8"
   inkscape:version="0.92.4 5da689c313, 2019-01-14"
   sodipodi:docname="exponente.svg"
   inkscape:export-filename="/home/des-arraigo/Documentos/Desarrollo/Github/CDI-UPGOP/images/exponente.png"
   inkscape:export-xdpi="96"
   inkscape:export-ydpi="96">
  <defs
     id="defs2" />
  <sodipodi:namedview
     id="base"
     pagecolor="#ffffff"
     bordercolor="#666666"
     borderopacity="1.0"
     inkscape:pageopacity="0.0"
     inkscape:pageshadow="2"
     inkscape:zoom="2.3674113"
     inkscape:cx="-5.8702373"
     inkscape:cy="96.353952"
     inkscape:document-units="mm"
     inkscape:current-layer="layer1"
     showgrid="false"
     inkscape:window-width="1366"
     inkscape:window-height="741"
     inkscape:window-x="0"
     inkscape:window-y="27"
     inkscape:window-maximized="1" />
  <metadata
     id="metadata5">
    <rdf:RDF>
      <cc:Work
         rdf:about="">
        <dc:format>image/svg+xml</dc:format>
        <dc:type
           rdf:resource="http://purl.org/dc/dcmitype/StillImage" />
        <dc:title></dc:title>
      </cc:Work>
    </rdf:RDF>
  </metadata>
  <g
     inkscape:label="Capa 1"
     inkscape:groupmode="layer"
     id="layer1"
     transform="translate(0,-257)">
    <g
       aria-label="5x "
       transform="matrix(0.26458333,0,0,0.26458333,0.22352122,256.72317)"
       style="font-style:normal;font-weight:normal;font-size:40px;line-height:1.25;font-family:sans-serif;letter-spacing:0px;word-spacing:0px;fill:#ff0000;fill-opacity:1;stroke:none"
       id="flowRoot10">
      <path
         d="m 46.742187,32.320312 h 15.488282 v 3.320313 h -11.875 v 7.148437 q 0.859375,-0.292968 1.71875,-0.429687 0.859375,-0.15625 1.71875,-0.15625 4.882812,0 7.734375,2.675781 2.851562,2.675781 2.851562,7.246094 0,4.707031 -2.929687,7.324219 -2.929688,2.597656 -8.261719,2.597656 -1.835938,0 -3.75,-0.3125 -1.894531,-0.3125 -3.925781,-0.9375 v -3.964844 q 1.757812,0.957031 3.632812,1.425781 1.875,0.46875 3.964844,0.46875 3.378906,0 5.351562,-1.777343 1.972657,-1.777344 1.972657,-4.824219 0,-3.046875 -1.972657,-4.824219 -1.972656,-1.777344 -5.351562,-1.777344 -1.582031,0 -3.164063,0.351563 -1.5625,0.351562 -3.203125,1.09375 z"
         id="path3741"
         inkscape:connector-curvature="0"
         style="fill:#0000ff" />
      <path
         d="M 89.828125,39.605469 81.917969,50.25 90.238281,61.480469 H 86 l -6.367188,-8.59375 -6.367187,8.59375 H 69.027344 L 77.523437,50.035156 69.75,39.605469 h 4.238281 l 5.800781,7.792968 5.800782,-7.792968 z"
         id="path3743"
         inkscape:connector-curvature="0"
         style="fill:#008000" />
    </g>
    <text
       xml:space="preserve"
       style="font-style:normal;font-weight:normal;font-size:4.78443766px;line-height:1.25;font-family:sans-serif;letter-spacing:0px;word-spacing:0px;fill:#ff0000;fill-opacity:1;stroke:none;stroke-width:0.11961094"
       x="24.452269"
       y="266.65976"
       id="text20"><tspan
         sodipodi:role="line"
         id="tspan18"
         x="24.452269"
         y="266.65976"
         style="fill:#ff0000;stroke-width:0.11961094">3</tspan></text>
    <path
       style="fill:#0000ff;stroke-width:0.26458332"
       id="path3746"
       d="m 11.526915,274.30463 c -0.32034,-0.0992 -0.653899,-0.13635 -0.986858,-0.16118 -0.375204,0.007 -0.7261338,0.13766 -1.0724184,0.26835 -0.069402,0.0342 -0.1392362,0.0675 -0.2082059,0.10255 -0.073234,0.0372 -0.1462955,0.0748 -0.2183725,0.11423 -0.079008,0.0432 -0.3128738,0.17844 -0.2348127,0.13356 2.1967315,-1.26316 1.0532822,-0.60698 0.57975,-0.28862 -0.562161,0.38542 -1.0959264,0.80673 -1.5908634,1.27503 -0.4348379,0.43486 -0.7793426,0.93919 -1.0730579,1.47641 -0.2319375,0.42628 -0.4107093,0.87586 -0.4642279,1.35973 -0.013512,0.37367 0.1851033,0.66433 0.4283525,0.92741 0.2634168,0.25511 0.5986505,0.37354 0.9447996,0.4675 0.3730323,0.10855 0.7516749,0.0818 1.1325714,0.0531 0.3112415,-0.0326 0.6169935,-0.0561 0.9272262,-0.0134 0.1641655,0.0563 0.331594,0.10533 0.455945,0.22971 0.04636,0.0308 0.09397,0.0621 0.147054,0.0801 0.01791,3.5e-4 0.01014,-0.006 5.29e-4,-0.0209 0,0 -1.3629454,0.97582 -1.3629454,0.97582 v 0 c -0.010612,-0.0143 -0.02063,-0.0272 -0.036459,-0.036 -0.057653,-0.038 -0.1151054,-0.0767 -0.1659906,-0.12367 -0.1046369,-0.0877 -0.2554483,-0.11975 -0.3844907,-0.15007 -0.3000504,-0.0269 -0.5992262,0.0122 -0.8990033,0.0297 -0.3932764,0.0235 -0.7850568,0.0197 -1.1653017,-0.0998 -0.3694734,-0.11274 -0.7212997,-0.25763 -0.9941036,-0.54304 -0.2682875,-0.29858 -0.4900832,-0.63049 -0.4915149,-1.04693 0.033942,-0.5078 0.2163546,-0.9799 0.4542401,-1.42708 0.2858458,-0.55383 0.6277734,-1.06977 1.0565709,-1.52517 0.4914578,-0.47755 1.0205752,-0.9086 1.5830423,-1.30079 0.9083294,-0.6266 1.8590355,-1.20212 2.8656479,-1.65531 0.360372,-0.12987 0.732741,-0.24212 1.120803,-0.21498 0.346205,0.0331 0.690226,0.0858 1.02517,0.18209 0,0 -1.373082,0.93163 -1.373082,0.93163 z"
       inkscape:connector-curvature="0" />
    <path
       style="fill:#008000;stroke-width:0.26458332"
       id="path3752"
       d="m 20.295686,276.92113 c 0.08944,-0.16868 0.172729,-0.34055 0.253938,-0.51332 0.02856,-0.042 0.03987,-0.0911 0.05056,-0.13988 0.306946,0.13856 1.502157,-1.30368 1.488018,-0.65548 0.03948,0.23827 0.06482,0.4773 0.07865,0.71863 0.01917,0.45588 0.01564,0.91235 0.01404,1.36851 -0.0227,0.70014 -0.101785,1.39683 -0.20849,2.08867 -0.11948,0.76877 -0.253198,1.53596 -0.412633,2.29752 -0.109536,0.5927 -0.271959,1.17317 -0.424136,1.75576 -0.07923,0.36177 -0.177352,0.71859 -0.287039,1.07215 -0.03879,0.16548 -0.08641,0.3253 -0.155499,0.48052 -0.03157,0.12513 -0.0913,0.24014 -0.129246,0.3631 -0.0263,0.1333 -0.08628,0.25423 -0.116135,0.38672 -0.02927,0.17011 -0.07987,0.33493 -0.113627,0.50417 -0.01672,0.12202 -0.04285,0.24595 -0.102052,0.35506 -0.01646,0.0375 -0.02505,0.0776 -0.03505,0.1171 -0.0446,-0.0209 -0.04863,-0.0857 -0.0708,-0.12968 0,0 -1.330145,1.01499 -1.330145,1.01499 v 0 c -0.03248,-0.0396 -0.09492,-0.0851 -0.100932,-0.14448 0.0041,-0.0513 0.01474,-0.10161 0.02649,-0.15168 0.02574,-0.11597 0.121191,-0.20932 0.121426,-0.33384 0.02622,-0.17201 0.07781,-0.33771 0.109493,-0.50721 0.01406,-0.0767 0.02361,-0.15577 0.04821,-0.23009 0.0066,-0.0198 0.01588,-0.0386 0.02381,-0.058 0.0094,-0.0137 0.02284,-0.0254 0.02819,-0.0412 0.0072,-0.021 0.0055,-0.0441 0.0083,-0.0662 0.03186,-0.13065 0.08922,-0.24852 0.12459,-0.37482 0.04711,-0.16487 0.156578,-0.30497 0.171554,-0.48138 0.114885,-0.35543 0.2356,-0.70886 0.312811,-1.07528 0.154144,-0.58503 0.335668,-1.16358 0.44688,-1.7592 0.171808,-0.75687 0.301392,-1.52344 0.419445,-2.29033 0.108845,-0.68034 0.181871,-1.36661 0.199756,-2.05581 -0.0038,-0.45025 -0.0053,-0.90078 -0.02762,-1.3506 -0.01624,-0.24186 -0.03532,-0.48482 -0.103581,-0.71871 -0.0044,-0.59281 1.366907,-1.45586 1.491937,-0.84874 0.0014,0.0687 -0.01487,0.13625 -0.02933,0.20292 -0.09019,0.17051 -0.178908,0.3419 -0.260972,0.5165 0,0 -1.510827,0.68355 -1.510827,0.68355 z"
       inkscape:connector-curvature="0" />
    <path
       style="fill:#ff0000;stroke-width:0.26458332"
       id="path3754"
       d="m 28.016968,264.72953 c 0.551542,-0.69154 1.428835,-1.03238 2.169909,-1.45791 0.256198,-0.12519 0.54316,-0.15284 0.82388,-0.17032 0.275921,-0.0243 0.544473,0.002 0.810745,0.0748 0.276743,0.0837 0.502144,0.23209 0.700905,0.43803 0.181903,0.22274 0.252322,0.51221 0.316783,0.78706 0.06827,0.34503 0.07143,0.69751 0.07599,1.04778 0.01693,0.4361 -0.0104,0.86973 -0.04778,1.30383 -0.03479,0.43803 -0.100291,0.8725 -0.137978,1.31035 -0.0544,0.40443 -0.100835,0.80923 -0.126923,1.21652 -0.01,0.30163 -0.01042,0.60183 -0.05715,0.90052 -0.0036,0.0718 -0.03758,0.14102 -0.03934,0.21291 0.07841,0.15048 -0.234635,-0.15594 -0.01215,-0.14696 0,0 -1.347806,0.98657 -1.347806,0.98657 v 0 c -0.187044,0.0211 -0.22293,-0.2724 -0.165414,-0.14793 0.04945,-0.039 0.05064,-0.12713 0.07425,-0.18176 0.07144,-0.29288 0.07967,-0.58857 0.08559,-0.8892 0.02193,-0.40888 0.06504,-0.81584 0.126238,-1.22078 0.03605,-0.43882 0.104574,-0.87364 0.140989,-1.31217 0.03664,-0.42853 0.07335,-0.8559 0.05036,-1.28664 -0.006,-0.33829 -0.0098,-0.67877 -0.06903,-1.01289 -0.05364,-0.24476 -0.113625,-0.50764 -0.274738,-0.70523 -0.182883,-0.17931 -0.395899,-0.30253 -0.647367,-0.36252 -0.259715,-0.0495 -0.519835,-0.0604 -0.783354,-0.0311 -0.271717,0.0285 -0.539869,0.0794 -0.777769,0.22225 3.398109,-1.96775 1.258075,-0.76836 0.991997,-0.57138 -0.132702,0.0982 -0.244251,0.21817 -0.362882,0.33201 0,0 -1.517965,0.66416 -1.517965,0.66416 z"
       inkscape:connector-curvature="0" />
    <text
       xml:space="preserve"
       style="font-style:normal;font-weight:normal;font-size:2.64092612px;line-height:1.25;font-family:sans-serif;letter-spacing:0px;word-spacing:0px;fill:#0000ff;fill-opacity:1;stroke:none;stroke-width:0.06602315"
       x="2.1146376"
       y="284.26001"
       id="text3758"><tspan
         sodipodi:role="line"
         id="tspan3756"
         x="2.1146376"
         y="284.26001"
         style="fill:#0000ff;stroke-width:0.06602315">coeficiente</tspan></text>
    <text
       xml:space="preserve"
       style="font-style:normal;font-weight:normal;font-size:2.47901011px;line-height:1.25;font-family:sans-serif;letter-spacing:0px;word-spacing:0px;fill:#ff0000;fill-opacity:1;stroke:none;stroke-width:0.06197525"
       x="25.816822"
       y="274.09845"
       id="text3762"><tspan
         sodipodi:role="line"
         id="tspan3760"
         x="25.816822"
         y="274.09845"
         style="fill:#ff0000;stroke-width:0.06197525">exponente</tspan></text>
    <text
       xml:space="preserve"
       style="font-style:normal;font-weight:normal;font-size:3.21855569px;line-height:1.25;font-family:sans-serif;letter-spacing:0px;word-spacing:0px;fill:#008000;fill-opacity:1;stroke:none;stroke-width:0.08046389"
       x="15.421272"
       y="290.95743"
       id="text3766"><tspan
         sodipodi:role="line"
         id="tspan3764"
         x="15.421272"
         y="290.95743"
         style="fill:#008000;stroke-width:0.08046389">base</tspan></text>
    <path
       style="fill:#0000ff;stroke-width:0.26458332"
       id="path3770"
       d="m 11.318378,274.35347 c -0.24188,0.004 -0.476783,10e-4 -0.714095,-0.045 -0.188273,-0.0253 -0.366908,-0.0789 -0.54939,-0.1293 -0.1572214,-0.0195 -0.295893,-0.0958 -0.4490163,-0.13217 -0.1109192,-0.007 -0.2541932,-0.0664 -0.3523091,-2.5e-4 -0.1218473,0.0625 -0.179418,0.10297 -0.2931295,0.014 -0.039432,-0.0349 -0.067441,-0.0782 -0.088741,-0.12577 -0.2909218,-0.53286 1.4739639,-1.32301 1.4820589,-0.70265 -0.0033,0.12655 0.05276,0.24732 0.09527,0.36437 0.08538,0.19155 0.199072,0.36284 0.26227,0.564 0.08522,0.24051 0.13923,0.48841 0.170762,0.74111 0.01745,0.13383 0.02708,0.2682 0.03275,0.40295 0.462713,-0.0991 -1.6998611,1.29021 -1.3824199,0.6937 0.072791,-0.15163 0.1323526,-0.30836 0.2103808,-0.45761 0.1027184,-0.17978 0.2348228,-0.33883 0.3863971,-0.47907 0.119935,-0.087 0.224714,-0.19555 0.349014,-0.27598 0.466139,-0.42993 1.016964,-0.82647 1.639034,-0.97835 0.02867,-0.007 0.05311,-0.009 0.07422,0.013 0.04034,0.0492 0.06166,0.11242 0.08984,0.16733 0,0 -1.543084,0.65495 -1.543084,0.65495 v 0 c 0.02956,0.0505 0.0594,0.10773 0.09404,0.15836 0.0092,0.0238 -0.0067,0.0278 -0.02773,0.0404 -0.475701,0.30019 -0.754313,0.46238 1.339193,-0.77717 0.01354,-0.008 -0.0318,0.006 -0.04487,0.0147 -0.03218,0.0216 -0.04379,0.0668 -0.07894,0.0854 -0.102152,0.10465 -0.243127,0.1739 -0.350049,0.27794 -0.163783,0.11597 -0.303519,0.2587 -0.415986,0.42569 -0.08913,0.13954 -0.14936,0.28909 -0.20643,0.44318 -0.258906,0.58213 -1.3207312,1.40878 -1.6185845,0.75222 0.00353,-0.13174 -2.226e-4,-0.26366 -0.010491,-0.39505 -0.024178,-0.24372 -0.068519,-0.48418 -0.1569566,-0.71376 -0.058964,-0.19875 -0.1783337,-0.36443 -0.2617182,-0.55313 -0.050528,-0.13244 -0.1177282,-0.26903 -0.1312299,-0.41026 -0.00546,-0.61396 1.8479302,-0.33223 1.4786752,-0.84993 0.0018,-0.005 -0.01975,-0.006 0.0029,-0.008 0.05495,-0.0616 0.148839,-0.0765 0.230681,-0.0914 0.133538,0.0118 0.266812,0.0284 0.395863,0.0665 0.147735,0.0486 0.29348,0.10144 0.446176,0.13342 0.176393,0.0505 0.355576,0.0843 0.536,0.11735 0.232857,0.0336 0.468085,0.0206 0.702726,0.0187 0,0 -1.343112,0.97583 -1.343112,0.97583 z"
       inkscape:connector-curvature="0" />
    <path
       style="fill:#0000ff;stroke-width:0.26458332"
       id="path3772"
       d="m 11.025504,273.91212 c 0.194607,-0.0327 0.390203,-0.0585 0.585855,-0.084 0.07032,-0.009 0.141883,-0.009 0.21281,-0.009 -0.471968,0.2661 -0.943936,0.53221 -1.415904,0.79831 0.01438,-0.022 0.0192,-0.051 0.03785,-0.0192 0.294428,0.54122 0.297165,-0.10601 1.477268,-0.73444 0.0083,-0.004 -0.0012,0.0189 -6.09e-4,0.0283 0.0049,0.0775 0.02,0.0437 -0.01295,0.0899 -0.03987,0.0207 -0.03754,0.0867 -0.05977,0.11398 -0.01386,0.017 -0.04171,0.0155 -0.05931,0.0286 -0.05124,0.0516 -0.09801,0.1079 -0.145898,0.16276 -0.03523,0.0185 -0.04753,0.0184 -0.05637,0.0681 -0.0034,0.0602 -0.08789,-0.0736 -0.01834,-0.0832 3.71e-4,-0.011 0.02696,0.007 0.02884,-0.003 0.120763,-0.60988 -1.8822809,1.12011 -1.337617,0.71932 0.0088,0.001 0.01975,0.01 0.02635,0.004 0.01147,-0.0103 0.05756,-0.0978 0.08443,-0.12631 0.0089,-0.008 0.01502,-0.0168 0.02043,-0.0269 0,0 1.562307,-0.60588 1.562307,-0.60588 v 0 c -0.01045,0.002 -0.02108,0.001 -0.03037,0.009 -0.05439,0.0323 -0.121748,0.0518 -0.113585,0.12033 -0.448673,0.41547 -1.003821,1.07473 -1.599373,0.8844 -0.06603,-0.0136 -0.12327,-0.074 -0.119785,-0.14397 4.23e-4,-0.0526 -0.0086,-0.12755 0.01232,-0.16925 0.05039,-0.0538 0.102822,-0.10676 0.146599,-0.16606 0.0153,-0.0224 0.01563,-0.0604 0.04086,-0.0705 0.04089,-0.0163 0.01894,0.0563 0.08631,-0.0517 0.05054,-0.0705 -0.02233,0.0132 0.05302,-0.003 0.01,-0.002 -0.0065,-0.0251 0.0021,-0.0305 1.049463,-0.65812 1.17473,-1.36564 1.48722,-0.81129 0.244652,0.53921 -2.6439552,2.00388 -1.447842,1.0029 -0.06532,0.003 -0.1301,0.009 -0.194879,0.0177 -0.193911,0.022 -0.386854,0.0512 -0.5786039,0.0876 0,0 1.3266349,-0.99775 1.3266349,-0.99775 z"
       inkscape:connector-curvature="0" />
    <path
       style="fill:#008000;stroke-width:0.26458332"
       id="path3774"
       d="m 21.832119,274.05353 c -0.177826,0.22753 -0.333284,0.47166 -0.495169,0.71064 -0.124974,0.18459 -0.218306,0.38853 -0.309951,0.59114 -0.07448,0.15776 -0.144572,0.31686 -0.237135,0.46506 -0.07015,0.1085 -0.141039,0.21618 -0.213693,0.32311 -0.02256,0.0416 -0.03356,0.0875 -0.04615,0.13259 -0.05539,-0.0883 -0.04631,-0.10265 0.03168,-0.10619 0.08928,-10e-4 0.17858,9e-4 0.267875,6.4e-4 0.153986,-0.0759 0.332601,-0.0833 0.501144,-0.0959 0.216332,-0.0133 0.433153,-0.0121 0.649777,-0.0145 0.174231,-0.0536 0.352173,-0.0831 0.533312,-0.0994 0.138248,-0.0133 0.277348,-0.0153 0.41615,-0.0148 0.129442,-4e-4 0.258865,10e-4 0.388305,0.002 0.10999,-1e-5 0.219983,-0.002 0.32997,-0.002 0.648473,0.002 0.526553,-0.22587 -1.277678,0.82615 -0.0387,-0.0275 -0.134506,-0.0984 -0.183536,-0.141 -0.120807,-0.0961 -0.237929,-0.19161 -0.341399,-0.30716 -0.140053,-0.12699 -0.262334,-0.27126 -0.406223,-0.39453 -0.112488,-0.11671 -0.234042,-0.22487 -0.34249,-0.34503 -0.07396,-0.072 -0.135656,-0.15741 -0.226322,-0.20943 -0.05196,-0.0548 -0.0971,-0.11568 -0.13392,-0.18157 -0.02729,-0.0318 -0.056,-0.0624 -0.08616,-0.0916 -0.03284,-0.024 -0.04539,-0.0654 -0.0489,-0.10494 -0.0013,-0.0252 -0.0018,-0.0504 -0.003,-0.0755 -0.105631,-0.54934 -0.175324,0.0683 1.490805,-0.72443 -4.4e-5,0.0141 -8.7e-5,0.0282 -1.3e-4,0.0423 0,0 -1.486055,0.75725 -1.486055,0.75725 v 0 c -5.3e-5,-0.014 -1.06e-4,-0.0281 -1.59e-4,-0.0421 0.496751,-0.26327 1.786537,-1.26773 1.49013,-0.79002 -0.0021,0.0229 -0.0031,0.0459 -0.0036,0.0688 -0.0028,0.0461 -0.04946,-0.058 -0.01,-0.002 0.0381,0.0437 0.07736,0.0866 0.111249,0.13378 0.02011,0.0436 0.04522,0.0855 0.08529,0.11378 0.08901,0.071 0.163815,0.15876 0.241431,0.24161 0.109233,0.1126 0.215312,0.22768 0.329707,0.33525 0.141996,0.13202 0.274487,0.27337 0.415996,0.40582 0.102585,0.10452 0.218598,0.19261 0.329965,0.28735 0.103514,0.077 0.223134,0.14102 0.266116,0.27049 -1.328521,0.84814 -0.884674,0.91552 -1.559962,0.90632 -0.108345,4e-4 -0.216693,-0.002 -0.325038,-0.002 -0.129865,2.6e-4 -0.259713,6.9e-4 -0.389575,0.002 -0.134051,0.003 -0.26816,0.008 -0.401236,0.026 -0.181195,0.0268 -0.358864,0.0788 -0.542573,0.0834 -0.213433,4.5e-4 -0.427323,0.004 -0.639719,0.0269 -0.174411,0.0231 -0.343475,0.077 -0.518017,0.0877 -0.09114,2.4e-4 -0.182252,0.003 -0.273373,0.004 -0.09188,-0.003 -0.134677,-0.0455 -0.179654,-0.13253 -1.13e-4,-0.0619 0.01809,-0.12228 0.03229,-0.18195 0.03716,-0.1363 0.141032,-0.2332 0.205398,-0.35443 0.103337,-0.13834 0.18388,-0.28503 0.25151,-0.4437 0.103671,-0.20469 0.187139,-0.42036 0.305645,-0.61759 0.165434,-0.23615 0.32801,-0.47335 0.481317,-0.71755 0,0 1.525677,-0.65183 1.525677,-0.65183 z"
       inkscape:connector-curvature="0" />
    <path
       style="fill:#ff0000;stroke-width:0.26458332"
       id="path3776"
       d="m 27.336603,264.96275 c 0.145963,-0.2803 0.350978,-0.52263 0.530427,-0.78126 0.127992,-0.19666 0.272147,-0.38011 0.422378,-0.5598 0.136064,-0.17433 0.301498,-0.3212 0.45171,-0.48247 0.444153,-0.5022 0.308827,-0.20604 1.616445,-0.78278 0.02328,0.14628 -0.02948,0.28522 -0.06078,0.42586 -0.0439,0.23416 -0.04278,0.47249 -0.07885,0.70775 -0.04316,0.20025 -0.06685,0.403 -0.07914,0.60722 -0.0079,0.15961 -0.0056,0.31932 -0.0055,0.47903 -0.0038,0.0824 -0.005,0.15302 0.04693,0.21948 0.02762,0.0517 0.04571,0.10755 0.06151,0.16377 0.165177,0.58247 1.184968,-0.6185 -1.466434,0.86841 -0.108152,-0.11146 -0.239279,-0.19417 -0.367811,-0.27929 -0.144545,-0.0769 -0.249851,-0.20018 -0.372806,-0.30398 -0.05495,-0.0761 -0.128907,-0.13551 -0.206933,-0.18665 -0.01347,-0.006 -0.03976,-0.0274 -0.02289,10e-4 0,0 1.385086,-0.94405 1.385086,-0.94405 v 0 c 0.01413,0.0196 0.03143,0.0351 0.05064,0.0498 0.07337,0.0627 0.144378,0.12836 0.20701,0.20199 0.111922,0.10406 0.219568,0.21115 0.355331,0.28533 0.119647,0.0757 0.228113,0.17332 0.352025,0.23831 -0.464256,0.28418 -1.791091,1.225 -1.390041,0.85697 -0.0038,-0.036 -0.01048,-0.072 -0.02471,-0.10556 -0.06041,-0.0956 -0.103275,-0.19522 -0.08911,-0.31076 1.45e-4,-0.16339 0.0034,-0.32691 0.0094,-0.49017 0.0082,-0.21073 0.02172,-0.42195 0.07071,-0.62786 0.05154,-0.23392 0.05114,-0.46898 0.07479,-0.70659 0.0208,-0.1297 0.06827,-0.25121 0.07369,-0.37955 1.719125,-0.87019 1.851473,-1.15854 1.392701,-0.62958 -0.149969,0.16389 -0.315283,0.30912 -0.460145,0.4773 -0.150455,0.1796 -0.303966,0.35282 -0.437041,0.54633 -0.165963,0.26023 -0.375351,0.48973 -0.527765,0.75781 0,0 -1.510826,0.68355 -1.510826,0.68355 z"
       inkscape:connector-curvature="0" />
    <path
       style="fill:#008000;stroke-width:0.26458332"
       id="path3778"
       d="m 20.159619,276.62093 c 0.0058,-0.17107 0.0027,-0.34232 -0.0031,-0.51334 -0.12206,-0.63101 1.735899,-1.27296 1.470331,-0.60695 -0.04231,0.0732 -0.06453,0.15286 -0.112742,0.22255 -0.0177,0.0256 -0.04223,0.0466 -0.05414,0.0754 -0.638527,1.94889 -1.739206,0.97413 -1.498277,0.38777 0.02873,-0.0702 0.08074,-0.12522 0.130733,-0.18063 0.01238,-0.0122 0.02367,-0.0248 0.02985,-0.0402 0.245535,-0.71872 1.014465,-0.79681 1.612207,-0.80275 0,0 -1.352309,0.98174 -1.352309,0.98174 v 0 c -0.709429,-0.0126 0.913769,-0.13689 1.295067,-0.80458 -0.01312,0.005 -0.02987,0.012 -0.04058,0.0263 -0.05114,0.0462 -0.101725,0.0935 -0.150798,0.14132 -0.01629,0.0202 -0.06148,0.0554 -0.07122,0.076 -0.01147,0.0244 0.01062,0.0569 -0.0012,0.0808 -0.505398,0.24623 -1.010797,0.49246 -1.516195,0.7387 0.02935,0.003 0.05334,-0.0201 0.07681,-0.036 0.01944,-0.015 0.07726,-0.0446 0.08837,-0.064 0.01801,-0.0315 0.0092,-0.0872 0.04553,-0.11341 0.0066,-0.011 0.01325,-0.022 0.01988,-0.033 0.0094,-9.5e-4 0.02293,0.005 0.02816,-0.003 0.0074,-0.0112 -0.01113,-0.0336 5.29e-4,-0.0402 2.356756,-1.33671 1.506833,-1.35179 1.485397,-0.76284 -0.0056,0.17207 -0.009,0.34436 -0.0031,0.51647 0,0 -1.479229,0.75371 -1.479229,0.75371 z"
       inkscape:connector-curvature="0" />
    <path
       style="fill:#ff0000;stroke-width:0.26458332"
       id="path3788"
       d="m 27.793446,264.28249 c 0.14513,-0.21589 0.302819,-0.42336 0.482838,-0.61129 0.09736,-0.11348 0.228846,-0.19712 0.318183,-0.31666 0.08182,-0.0892 0.160774,-0.18068 0.230251,-0.28034 0.05384,-0.0745 0.111517,-0.14585 0.17318,-0.21397 0.04153,-0.0574 0.105876,-0.0935 0.146955,-0.14934 0.03354,-0.0741 0.07521,-0.14312 0.120222,-0.21091 0.02476,-0.0448 0.05929,-0.0812 0.09435,-0.118 0.01371,-0.0141 0.02727,-0.0283 0.0402,-0.0431 0.006,0.008 0.166235,0.17317 0.04916,0.17208 1.982985,-1.22297 1.691272,-1.16453 1.312754,-0.65216 -0.05061,0.0729 -0.116123,0.11901 -0.153364,0.19971 -0.06352,0.1105 -0.121433,0.22283 -0.204353,0.32061 -0.05496,0.0965 -0.137115,0.16826 -0.199387,0.25823 -0.06558,0.0616 -0.14617,0.10681 -0.212556,0.16856 -0.02863,0.083 -0.104368,0.0935 -0.159031,0.14535 -0.02013,0.096 -0.08343,0.16734 -0.14818,0.23696 -0.07118,0.0344 -0.0753,0.10766 -0.122195,0.16525 -0.02439,0.053 -0.06388,-0.004 -0.09076,0.0438 0.0024,0.0649 -0.0093,0.0995 -0.04808,0.15143 -0.06397,0.0182 -0.05494,0.0985 -0.04904,0.14889 -0.488513,0.27897 -0.975196,0.56117 -1.465538,0.83691 -0.01429,0.008 -0.06338,0.0111 -0.04911,0.003 2.521614,-1.43009 1.799627,-1.04997 1.342816,-0.7453 -0.0081,0.0321 -0.03193,-0.007 -0.04251,0.003 -0.01127,0.0101 -0.0056,0.0304 -0.0132,0.0435 -0.01828,0.0316 -0.04935,0.0598 -0.06854,0.0933 -0.01519,0.075 -0.07037,0.10888 -0.116467,0.16662 -0.05581,0.0376 -0.05396,0.12492 -0.08563,0.18511 -0.06249,0.10029 -0.02878,0.12174 -0.112532,-0.0507 0.0104,-0.0307 0.06655,-0.0218 0.09381,-0.0222 0.0569,0.0795 0.156072,0.0872 0.224883,0.14423 0.08734,0.0509 0.17409,0.11017 0.268462,0.153 0.08926,0.0236 0.154911,0.0754 0.226316,0.13085 0.0085,0.007 0.01545,0.0161 0.02545,0.0202 0.02861,0.012 0.01484,-0.0195 0.04708,0.003 0.03822,0.0263 0.05034,0.0693 0.09326,0.0875 0.05906,0.0477 0.09615,0.10174 0.166923,0.13658 0.05696,0.0339 0.107498,0.0826 0.159165,0.12556 0.04123,0.0443 0.08535,0.0857 0.129379,0.12715 0.0083,0.007 0.01595,0.0151 0.0236,0.0229 -0.07951,-0.13421 0.04816,0.0313 0.08115,0.0722 0.01376,0.0171 0.02684,0.0348 0.03869,0.0532 -0.0067,-0.0233 0.0259,0.097 0.02032,0.0919 -0.0322,-0.029 -0.01487,-0.0377 0.0057,-0.0358 0.05294,-0.009 0.0967,0.16335 0.0831,0.10818 0.02283,-1.2e-4 0.04451,0.006 0.06742,0.005 0.257431,-0.47851 -0.944814,0.53705 -1.421263,0.79829 -0.0075,0.004 6e-6,-0.0173 -0.0019,-0.0257 -0.0036,-0.0158 -0.0098,-0.031 -0.01463,-0.0465 -0.04867,-0.13815 -0.08624,-0.2808 -0.123883,-0.42253 -0.0499,-0.16932 -0.05432,-0.34561 -0.09835,-0.516 -0.04502,-0.15189 -0.06753,-0.30784 -0.08555,-0.46475 -0.0063,-0.0781 -0.01,-0.15626 -0.01453,-0.23443 -0.05477,-0.56874 1.490223,-1.30455 1.489236,-0.70156 0,0 -1.486183,0.75814 -1.486183,0.75814 v 0 c -0.0065,-0.57627 1.56314,-1.40549 1.487726,-0.81598 -0.0047,0.0751 -0.0034,0.15053 -4.8e-5,0.22569 0.0083,0.14914 0.02582,0.29728 0.06745,0.4413 0.04719,0.17114 0.05997,0.34412 0.09688,0.51749 0.0359,0.13746 0.08116,0.27204 0.12459,0.4068 0.239686,0.62681 -0.564394,1.49753 -1.400342,1.02752 -0.04074,-0.0226 -0.08172,-0.0453 -0.112972,-0.081 -0.106304,-0.14959 0.03608,0.008 -0.05768,-0.0668 -0.03062,-0.0246 -0.127019,-0.1604 -0.09396,-0.15215 0.0089,0.002 0.01164,0.0141 0.01746,0.0211 -0.0059,-0.01 -0.0136,-0.0226 -0.02172,-0.0319 -0.08359,-0.10076 0.03272,0.0855 -0.0795,-0.0613 -0.0027,-0.003 -0.01334,-0.0142 -0.01741,-0.0188 -0.03843,-0.041 -0.07739,-0.082 -0.121528,-0.1169 -0.04478,-0.0398 -0.091,-0.0766 -0.143788,-0.10493 -0.06237,-0.0455 -0.107958,-0.10599 -0.172556,-0.14738 -0.05322,-0.0477 -0.110992,-0.0663 -0.167499,-0.11294 -0.06472,-0.0472 -0.140193,-0.071 -0.209236,-0.1117 -0.09163,-0.056 -0.190058,-0.0972 -0.276704,-0.16106 -0.04239,-0.0122 -0.132177,-0.0899 -0.173643,-0.0851 -0.0072,8.2e-4 -2.64e-4,0.0144 -5.29e-4,0.0216 -0.04822,3.5e-4 -0.09385,0.003 -0.133623,-0.0294 -0.100216,-0.16704 -0.104439,-0.10966 -0.02416,-0.20905 0.05707,-0.0739 0.08695,-0.0896 0.0794,-0.19399 0.01791,-0.0267 0.05381,-0.10863 0.07897,-0.12195 0.01077,-0.006 0.02479,0.0119 0.03588,0.007 0.0099,-0.005 0.0093,-0.0197 0.01392,-0.0296 0.01582,-0.0331 0.03139,-0.0967 0.05413,-0.1233 0.0062,-0.007 0.02426,0.002 0.02774,-0.007 0.04384,-0.11188 -0.03626,-0.022 0.01357,-0.0727 0.0091,-0.008 0.04848,-0.0453 0.05604,-0.0496 0.49312,-0.2819 0.988856,-0.5592 1.483309,-0.83875 0.01103,-0.006 0.04434,-0.0245 0.03338,-0.0182 -0.467296,0.27163 -0.934849,0.54282 -1.402275,0.81423 0.01289,0.0135 0.02199,0.0321 0.03869,0.0404 0.0027,10e-4 0.02281,-0.15501 0.0222,-0.16307 0.009,-0.009 0.04444,-0.0534 0.05741,-0.0522 0.04319,0.004 0.0297,0.0384 0.02827,-0.0134 -5.29e-4,-0.0568 -0.0249,-0.14801 0.04093,-0.16163 0.146434,-0.0595 0.04858,-0.0221 0.133464,-0.14477 0.05937,-0.0558 0.118861,-0.11149 0.179115,-0.16618 0.0079,-0.11776 0.02527,-0.15486 0.137856,-0.19418 0.01683,-0.0315 0.02625,-0.068 0.04992,-0.0947 0.02426,-0.0274 0.05654,-0.0213 0.08175,-0.0474 0.07442,-0.0768 -0.02439,-0.0255 0.06641,-0.0636 0.06397,-0.0244 0.05733,-0.0611 0.106048,-0.10248 0.01217,-0.0104 0.03181,-0.009 0.04378,-0.0195 0.03078,-0.0272 0.03588,-0.0768 0.06871,-0.10234 0.06912,-0.1029 0.163711,-0.18199 0.209063,-0.29966 0.05299,-0.0734 0.0523,-0.16835 0.140269,-0.21883 0.442034,-0.55251 0.01569,-0.33267 1.57425,-0.99125 0.08322,-0.002 0.193818,0.11716 0.148111,0.17399 -0.01585,0.0132 -0.031,0.0272 -0.04576,0.0416 -0.03437,0.0329 -0.07063,0.0627 -0.103814,0.0961 -0.04894,0.0586 -0.104968,0.11818 -0.134107,0.18812 -0.03004,0.0795 -0.05786,0.13913 -0.12787,0.1916 -0.0639,0.0638 -0.128336,0.12702 -0.183764,0.19867 -0.08005,0.0954 -0.14314,0.20394 -0.224049,0.29541 -0.106524,0.0902 0.02011,-0.0261 -0.07649,0.0975 -0.06823,0.0873 -0.177106,0.14368 -0.248269,0.22878 -0.185094,0.17542 -0.358187,0.36288 -0.493646,0.57991 0,0 -1.517965,0.66416 -1.517965,0.66416 z"
       inkscape:connector-curvature="0" />
    <path
       style="fill:#008000;stroke-width:0.26458332"
       id="path3798"
       d="m 20.718422,275.2798 c -0.0087,-0.18659 -0.05187,-0.36984 -0.08665,-0.553 -0.02035,-0.11055 0.02195,-0.2079 0.05169,-0.31078 0.0069,-0.0245 0.01277,-0.0494 0.01998,-0.0738 0.662362,0.18384 1.472315,-1.27798 1.500545,-0.64413 0.0057,0.0567 0.01247,0.099 -0.02224,0.14698 -0.03063,0.0846 -0.06086,-0.002 -0.08041,0.0197 -0.01286,0.11419 0.01941,0.0826 -0.06474,0.15794 -0.03471,0.0592 -0.04744,0.12446 -0.05349,0.19178 1.08e-4,0.015 -0.0026,0.0365 -0.0046,0.0491 -7.15e-4,-0.001 -0.0015,-0.002 -0.0022,-0.004 -0.0021,-0.004 -0.0043,-0.008 -0.0064,-0.0119 0,0 -1.471579,0.80281 -1.471579,0.80281 v 0 c -0.03421,-0.0658 0.0069,0.0141 -0.0091,-0.0186 -0.0043,-0.0234 -0.0018,-0.0472 -6.35e-4,-0.0709 0.0054,-0.0822 0.0069,-0.16513 0.03119,-0.24441 0.03954,-0.23754 0.08677,0.0131 0.07872,-0.11882 -0.0044,-0.0732 -0.04333,-0.10002 0.03447,-0.12467 0.06118,-0.0292 0.08041,0.0363 0.07912,-0.0165 0.03046,-0.57661 1.309428,-1.42513 1.500685,-0.84264 -0.0048,0.029 -0.01425,0.057 -0.0217,0.0854 -0.02429,0.0861 -0.05215,0.1671 -0.08989,0.24816 0.02608,0.19368 0.06263,0.38558 0.09636,0.57804 0,0 -1.479229,0.7537 -1.479229,0.7537 z"
       inkscape:connector-curvature="0"
       inkscape:export-xdpi="96"
       inkscape:export-ydpi="96" />
  </g>
</svg>
